#N canvas 0 22 450 300 10;
#X obj 177 48 inlet;
#X obj 263 144 + 7;
#X obj 172 255 outlet;
#X obj 311 144 + 10;
#X obj 209 144 + 3;
#X connect 0 0 2 0;
#X connect 0 0 1 0;
#X connect 0 0 3 0;
#X connect 0 0 4 0;
#X connect 1 0 2 0;
#X connect 3 0 2 0;
#X connect 4 0 2 0;
