#N canvas 42 382 450 300 10;
#X obj 167 38 inlet;
#X obj 199 134 + 4;
#X obj 253 134 + 7;
#X obj 162 245 outlet;
#X obj 301 134 + 11;
#X connect 0 0 3 0;
#X connect 0 0 1 0;
#X connect 0 0 2 0;
#X connect 0 0 4 0;
#X connect 1 0 3 0;
#X connect 2 0 3 0;
#X connect 4 0 3 0;
